<svg width="668" height="600" viewBox="0 0 668 600" fill="none" xmlns="http://www.w3.org/2000/svg">
<path d="M334 433.333C389.23 433.333 434 388.563 434 333.333C434 278.103 389.23 233.333 334 233.333C278.77 233.333 234 278.103 234 333.333C234 388.563 278.77 433.333 334 433.333Z" stroke="black" stroke-width="66.6667" stroke-linecap="round" stroke-linejoin="round"/>
<path d="M34 460V206.667C34 169.33 34 150.661 41.2663 136.401C47.6577 123.856 57.8563 113.658 70.4007 107.266C84.6613 99.9999 103.33 99.9999 140.667 99.9999H175.821C179.919 99.9999 181.968 99.9999 183.859 99.7833C193.722 98.6536 202.568 93.1863 207.99 84.8696C209.029 83.2756 209.945 81.4426 211.778 77.7776C215.443 70.4473 217.276 66.7819 219.354 63.5939C230.197 46.9606 247.889 36.0259 267.617 33.7663C271.397 33.3333 275.493 33.3333 283.69 33.3333H384.31C392.507 33.3333 396.603 33.3333 400.383 33.7663C420.11 36.0259 437.803 46.9606 448.647 63.5939C450.723 66.7816 452.557 70.4483 456.223 77.7776C458.053 81.4429 458.97 83.2756 460.01 84.8696C465.433 93.1863 474.277 98.6536 484.14 99.7833C486.033 99.9999 488.08 99.9999 492.18 99.9999H527.333C564.67 99.9999 583.34 99.9999 597.6 107.266C610.143 113.658 620.343 123.856 626.733 136.401C634 150.661 634 169.33 634 206.667V460C634 497.337 634 516.007 626.733 530.267C620.343 542.81 610.143 553.01 597.6 559.4C583.34 566.667 564.67 566.667 527.333 566.667H140.667C103.33 566.667 84.6613 566.667 70.4007 559.4C57.8563 553.01 47.6577 542.81 41.2663 530.267C34 516.007 34 497.337 34 460Z" stroke="black" stroke-width="66.6667" stroke-linecap="round" stroke-linejoin="round"/>
</svg>
