<svg width="668" height="534" viewBox="0 0 668 534" fill="none" xmlns="http://www.w3.org/2000/svg">
  <path
    d="M336.09 69.0913L331.91 64.9087C320.38 53.3784 314.613 47.6134 307.887 43.4907C301.92 39.8354 295.417 37.1417 288.617 35.5087C280.943 33.6667 272.79 33.6667 256.484 33.6667H140.667C103.33 33.6667 84.6613 33.6667 70.4007 40.933C57.8563 47.3244 47.6577 57.523 41.2663 70.0674C34 84.328 34 102.996 34 140.333V393.667C34 431.003 34 449.673 41.2663 463.933C47.6577 476.477 57.8563 486.677 70.4007 493.067C84.6613 500.333 103.33 500.333 140.667 500.333H527.333C564.67 500.333 583.34 500.333 597.6 493.067C610.143 486.677 620.343 476.477 626.733 463.933C634 449.673 634 431.003 634 393.667V207C634 169.663 634 150.995 626.733 136.734C620.343 124.19 610.143 113.991 597.6 107.6C583.34 100.333 564.67 100.333 527.333 100.333H411.517C395.21 100.333 387.057 100.333 379.383 98.4913C372.583 96.8583 366.08 94.1647 360.113 90.5093C353.387 86.3867 347.62 80.6217 336.09 69.0913Z"
    stroke="black" stroke-width="66.6667" stroke-linecap="round" stroke-linejoin="round" />
</svg>