<svg width="800" height="800" viewBox="0 0 800 800" fill="none" xmlns="http://www.w3.org/2000/svg">
<path d="M500 400C500 455.23 455.23 500 400 500C344.77 500 300 455.23 300 400C300 344.77 344.77 300 400 300C455.23 300 500 344.77 500 400Z" stroke="black" stroke-width="66.6667" stroke-linecap="round" stroke-linejoin="round"/>
<path d="M430.153 102.002C423.293 100 415.53 100 400 100C384.47 100 376.707 100 369.847 102.002C359.807 104.931 350.937 110.936 344.487 119.17C340.08 124.796 337.197 132.005 331.43 146.424C323.14 167.151 300.131 177.824 278.952 170.767L259.926 164.427C246.43 159.928 239.682 157.679 233.065 157.293C223.346 156.727 213.673 159.011 205.234 163.863C199.488 167.167 194.459 172.197 184.399 182.257C173.707 192.948 168.361 198.294 164.965 204.396C159.976 213.361 157.865 223.645 158.92 233.85C159.637 240.797 162.445 247.816 168.061 261.855C176.855 283.841 168.395 308.959 148.091 321.144L138.84 326.696C124.677 335.193 117.595 339.443 112.451 345.293C107.899 350.47 104.467 356.533 102.37 363.1C100 370.52 100 378.86 100 395.543C100 415.297 100 425.17 103.154 433.627C105.941 441.097 110.474 447.79 116.375 453.153C123.053 459.22 132.132 462.853 150.289 470.117C168.845 477.537 178.399 498.137 172.079 517.097L164.907 538.613C159.94 553.513 157.456 560.967 157.23 568.287C156.958 577.09 159.016 585.807 163.196 593.557C166.672 600.007 172.226 605.56 183.333 616.667C194.441 627.773 199.995 633.327 206.442 636.803C214.193 640.983 222.911 643.043 231.713 642.77C239.034 642.543 246.485 640.06 261.388 635.093L278.954 629.237C300.131 622.18 323.14 632.85 331.43 653.577C337.197 667.993 340.08 675.203 344.487 680.83C350.937 689.063 359.807 695.07 369.847 698C376.707 700 384.47 700 400 700C415.53 700 423.293 700 430.153 698C440.193 695.07 449.063 689.063 455.513 680.83C459.92 675.203 462.803 667.993 468.57 653.577C476.86 632.85 499.87 622.18 521.043 629.243L538.597 635.097C553.5 640.063 560.953 642.547 568.273 642.773C577.077 643.043 585.793 640.987 593.543 636.807C599.99 633.33 605.547 627.777 616.653 616.67C627.76 605.563 633.313 600.007 636.79 593.56C640.97 585.81 643.027 577.09 642.757 568.29C642.53 560.97 640.047 553.517 635.08 538.613L627.913 517.113C621.59 498.147 631.147 477.54 649.71 470.117C667.867 462.853 676.947 459.22 683.627 453.153C689.527 447.79 694.06 441.097 696.847 433.627C700 425.17 700 415.297 700 395.543C700 378.86 700 370.52 697.63 363.1C695.533 356.533 692.1 350.47 687.55 345.293C682.403 339.443 675.323 335.193 661.16 326.696L651.897 321.139C631.593 308.956 623.13 283.838 631.927 261.853C637.54 247.814 640.35 240.794 641.067 233.848C642.12 223.642 640.01 213.359 635.02 204.394C631.623 198.292 626.28 192.946 615.587 182.254C605.527 172.195 600.497 167.165 594.753 163.861C586.313 159.008 576.64 156.725 566.92 157.291C560.303 157.676 553.557 159.926 540.06 164.424L521.047 170.762C499.87 177.821 476.86 167.15 468.57 146.424C462.803 132.005 459.92 124.796 455.513 119.17C449.063 110.936 440.193 104.931 430.153 102.002Z" stroke="black" stroke-width="66.6667" stroke-linecap="round" stroke-linejoin="round"/>
</svg>
