<svg width="600" height="600" viewBox="0 0 600 600" fill="none" xmlns="http://www.w3.org/2000/svg">
<path d="M166.667 300H433.333M140 566.667H460C497.337 566.667 516.007 566.667 530.267 559.4C542.81 553.01 553.01 542.81 559.4 530.267C566.667 516.007 566.667 497.337 566.667 460V140C566.667 102.663 566.667 83.9947 559.4 69.734C553.01 57.1897 542.81 46.991 530.267 40.5997C516.007 33.3334 497.337 33.3334 460 33.3334H140C102.663 33.3334 83.9948 33.3334 69.7342 40.5997C57.1898 46.991 46.9912 57.1897 40.5998 69.734C33.3335 83.9947 33.3335 102.663 33.3335 140V460C33.3335 497.337 33.3335 516.007 40.5998 530.267C46.9912 542.81 57.1898 553.01 69.7342 559.4C83.9948 566.667 102.663 566.667 140 566.667Z" stroke="black" stroke-width="66.6667" stroke-linecap="round" stroke-linejoin="round"/>
</svg>
