<svg width="668" height="668" viewBox="0 0 668 668" fill="none" xmlns="http://www.w3.org/2000/svg">
<path d="M450.66 117.356L544.94 211.637M367.333 634H634M34 634.013L35.5817 622.943C41.1787 583.763 43.9773 564.173 50.343 545.883C55.9917 529.657 63.708 514.223 73.302 499.967C84.1137 483.9 98.1063 469.907 126.091 441.923L514.357 53.6564C540.393 27.6217 582.603 27.6214 608.64 53.6564C634.673 79.6914 634.673 121.902 608.64 147.937L213.248 543.327C187.86 568.717 175.166 581.41 160.707 591.507C147.873 600.467 134.031 607.89 119.466 613.623C103.057 620.08 85.4583 623.63 50.2643 630.733L34 634.013Z" stroke="black" stroke-width="66.6667" stroke-linecap="round" stroke-linejoin="round"/>
</svg>
