<svg width="668" height="668" viewBox="0 0 668 668" fill="none" xmlns="http://www.w3.org/2000/svg">
<path d="M269.433 217.333C268.063 212.006 267.333 206.422 267.333 200.667C267.333 163.848 297.18 134 334 134C338.71 134 343.307 134.489 347.74 135.418M100.667 67.3333L34 34M567.333 67.3333L634 34M67.3333 267.333H34M634 267.333H600.667M120.667 634H547.333C566.003 634 575.337 634 582.467 630.367C588.74 627.17 593.837 622.073 597.033 615.8C600.667 608.67 600.667 599.337 600.667 580.667V554C600.667 535.33 600.667 525.997 597.033 518.867C593.837 512.593 588.74 507.497 582.467 504.3C575.337 500.667 566.003 500.667 547.333 500.667H120.667C101.998 500.667 92.664 500.667 85.5337 504.3C79.2617 507.497 74.1623 512.593 70.9663 518.867C67.3333 525.997 67.3333 535.33 67.3333 554V580.667C67.3333 599.337 67.3333 608.67 70.9663 615.8C74.1623 622.073 79.2617 627.17 85.5337 630.367C92.664 634 101.998 634 120.667 634ZM500.667 400.667V200.667C500.667 108.619 426.047 34 334 34C241.953 34 167.333 108.619 167.333 200.667V400.667H500.667Z" stroke="black" stroke-width="66.6667" stroke-linecap="round" stroke-linejoin="round"/>
</svg>
